<svg width="240" height="74" viewBox="0 0 240 74" fill="none" xmlns="http://www.w3.org/2000/svg">
<path d="M41.6137 72.2216C37.2048 72.2216 33.2706 71.272 29.8113 69.3727C26.4198 67.4056 23.7405 64.7603 21.7735 61.4366C19.8742 58.1129 18.9246 54.3823 18.9246 50.2446V16.7705H0V1H56.9773V16.7705H38.3579V51.5673C38.3579 52.9239 38.8327 54.077 39.7823 55.0267C40.732 55.9763 41.8512 56.4511 43.1399 56.4511H49.4481V72.2216H41.6137Z" fill="#F35823"/>
<path d="M47.3154 72.2216V41.4946C47.3154 36.9499 48.3329 32.9819 50.3678 29.5904C52.4705 26.131 55.3872 23.4518 59.1179 21.5525C62.8485 19.5854 67.2914 18.6019 72.4465 18.6019C75.024 18.6019 77.3981 18.8732 79.5686 19.4159C81.807 19.8907 83.808 20.6029 85.5716 21.5525C87.403 22.5021 88.9631 23.5874 90.2519 24.8084H90.4554C91.812 23.5874 93.3721 22.5021 95.1356 21.5525C96.8992 20.6029 98.8663 19.8907 101.037 19.4159C103.275 18.8732 105.683 18.6019 108.261 18.6019C113.484 18.6019 117.96 19.5854 121.691 21.5525C125.49 23.4518 128.406 26.131 130.441 29.5904C132.476 32.9819 133.494 36.9499 133.494 41.4946V72.2216H115.892L115.79 42.3085C115.79 40.8163 115.451 39.4597 114.772 38.2387C114.094 37.0178 113.145 36.0342 111.924 35.2881C110.703 34.542 109.244 34.1689 107.549 34.1689C105.921 34.1689 104.462 34.542 103.174 35.2881C101.953 36.0342 100.969 37.0178 100.223 38.2387C99.5446 39.4597 99.2054 40.8163 99.2054 42.3085V72.2216H81.6035V42.3085C81.6035 40.8163 81.2305 39.4597 80.4844 38.2387C79.8061 37.0178 78.8225 36.0342 77.5337 35.2881C76.3128 34.542 74.8545 34.1689 73.1587 34.1689C71.5986 34.1689 70.1742 34.542 68.8854 35.2881C67.6645 36.0342 66.6809 37.0178 65.9348 38.2387C65.2565 39.4597 64.9173 40.8163 64.9173 42.3085V72.2216H47.3154Z" fill="#F35823"/>
<path d="M154.073 73.5443C149.528 73.5443 145.493 72.3912 141.965 70.0849C138.438 67.7787 135.657 64.6246 133.622 60.6226C131.655 56.5528 130.672 51.9404 130.672 46.7853C130.672 41.3589 131.859 36.509 134.233 32.2358C136.675 27.9625 140.066 24.6388 144.407 22.2647C148.748 19.8228 153.87 18.6019 159.771 18.6019C165.536 18.6019 170.488 19.7889 174.626 22.163C178.831 24.537 182.087 27.7929 184.393 31.9305C186.699 36.0681 187.852 40.8163 187.852 46.1748V72.2216H170.861V64.082H170.454C169.504 65.9134 168.283 67.5413 166.791 68.9657C165.299 70.3902 163.501 71.5094 161.399 72.3233C159.364 73.1373 156.922 73.5443 154.073 73.5443ZM159.364 58.1807C161.534 58.1807 163.4 57.672 164.96 56.6546C166.52 55.5693 167.741 54.1109 168.623 52.2795C169.504 50.4481 169.945 48.3793 169.945 46.0731C169.945 43.7669 169.504 41.7659 168.623 40.0701C167.741 38.3065 166.52 36.916 164.96 35.8986C163.4 34.8133 161.534 34.2706 159.364 34.2706C157.261 34.2706 155.396 34.8133 153.768 35.8986C152.208 36.916 150.987 38.3065 150.105 40.0701C149.223 41.7659 148.782 43.7669 148.782 46.0731C148.782 48.3793 149.223 50.4481 150.105 52.2795C150.987 54.1109 152.208 55.5693 153.768 56.6546C155.396 57.672 157.261 58.1807 159.364 58.1807Z" fill="#F35823"/>
<path d="M186.889 72.2216V42.105C186.889 37.6282 187.974 33.6263 190.145 30.0991C192.383 26.5041 195.503 23.6892 199.505 21.6543C203.575 19.6194 208.323 18.6019 213.75 18.6019C219.176 18.6019 223.856 19.6194 227.791 21.6543C231.725 23.6892 234.743 26.5041 236.846 30.0991C238.949 33.6263 240 37.6282 240 42.105V72.2216H222.296V42.919C222.296 41.3589 221.923 39.9345 221.177 38.6457C220.431 37.2891 219.38 36.2038 218.023 35.3898C216.734 34.5759 215.208 34.1689 213.445 34.1689C211.749 34.1689 210.189 34.5759 208.764 35.3898C207.408 36.2038 206.356 37.2891 205.61 38.6457C204.864 39.9345 204.491 41.3589 204.491 42.919V72.2216H186.889Z" fill="#F35823"/>
</svg>
